/* XPM */
static char * 9_xpm[] = {
"64 64 2 1",
" 	c #FFFFFF",
".	c #E008A3",
"     .....     .....     .....     .....     .....     .....    ",
"     .....     .....     .....     .....     .....     .....    ",
"     .....     .....     .....     .....     .....     .....    ",
"     .....     .....     .....     .....     .....     .....    ",
"     .....     .....     .....     .....     .....     .....    ",
"     .....     .....     .....     .....     .....     .....    ",
"     .....     .....     .....     .....     .....     .....    ",
"     .....     .....     .....     .....     .....     .....    ",
"     .....     .....     .....     .....     .....     .....    ",
"     .....     .....     .....     .....     .....     .....    ",
"     .....     .....     .....     .....     .....     .....    ",
"     .....     .....     .....     .....     .....     .....    ",
"     .....     .....     .....     .....     .....     .....    ",
"     .....     .....     .....     .....     .....     .....    ",
"     .....     .....     .....     .....     .....     .....    ",
"     .....     .....     .....     .....     .....     .....    ",
"     .....     .....     .....     .....     .....     .....    ",
"     .....     .....     .....     .....     .....     .....    ",
"     .....     .....     .....     .....     .....     .....    ",
"     .....     .....     .....     .....     .....     .....    ",
"     .....     .....     .....     .....     .....     .....    ",
"     .....     .....     .....     .....     .....     .....    ",
"     .....     .....     .....     .....     .....     .....    ",
"     .....     .....     .....     .....     .....     .....    ",
"     .....     .....     .....     .....     .....     .....    ",
"     .....     .....     .....     .....     .....     .....    ",
"     .....     .....     .....     .....     .....     .....    ",
"     .....     .....     .....     .....     .....     .....    ",
"     .....     .....     .....     .....     .....     .....    ",
"     .....     .....     .....     .....     .....     .....    ",
"     .....     .....     .....     .....     .....     .....    ",
"     .....     .....     .....     .....     .....     .....    ",
"     .....     .....     .....     .....     .....     .....    ",
"     .....     .....     .....     .....     .....     .....    ",
"     .....     .....     .....     .....     .....     .....    ",
"     .....     .....     .....     .....     .....     .....    ",
"     .....     .....     .....     .....     .....     .....    ",
"     .....     .....     .....     .....     .....     .....    ",
"     .....     .....     .....     .....     .....     .....    ",
"     .....     .....     .....     .....     .....     .....    ",
"     .....     .....     .....     .....     .....     .....    ",
"     .....     .....     .....     .....     .....     .....    ",
"     .....     .....     .....     .....     .....     .....    ",
"     .....     .....     .....     .....     .....     .....    ",
"     .....     .....     .....     .....     .....     .....    ",
"     .....     .....     .....     .....     .....     .....    ",
"     .....     .....     .....     .....     .....     .....    ",
"     .....     .....     .....     .....     .....     .....    ",
"     .....     .....     .....     .....     .....     .....    ",
"     .....     .....     .....     .....     .....     .....    ",
"     .....     .....     .....     .....     .....     .....    ",
"     .....     .....     .....     .....     .....     .....    ",
"     .....     .....     .....     .....     .....     .....    ",
"     .....     .....     .....     .....     .....     .....    ",
"     .....     .....     .....     .....     .....     .....    ",
"     .....     .....     .....     .....     .....     .....    ",
"     .....     .....     .....     .....     .....     .....    ",
"     .....     .....     .....     .....     .....     .....    ",
"     .....     .....     .....     .....     .....     .....    ",
"     .....     .....     .....     .....     .....     .....    ",
"     .....     .....     .....     .....     .....     .....    ",
"     .....     .....     .....     .....     .....     .....    ",
"     .....     .....     .....     .....     .....     .....    ",
"     .....     .....     .....     .....     .....     .....    "};
