/* XPM */
static char * 2_xpm[] = {
"64 64 2 1",
" 	c #FFFFFF",
".	c #ECFC13",
"     .....    .....     .....     .....     .....     .....     ",
"     .....    .....     .....     .....     .....     .....     ",
"     .....    .....     .....     .....     .....     .....     ",
"     .....    .....     .....     .....     .....     .....     ",
"     .....    .....     .....     .....     .....     .....     ",
"     .....    .....     .....     .....     .....     .....     ",
"     .....    .....     .....     .....     .....     .....     ",
"     .....    .....     .....     .....     .....     .....     ",
"     .....    .....     .....     .....     .....     .....     ",
"     .....    .....     .....     .....     .....     .....     ",
"     .....    .....     .....     .....     .....     .....     ",
"     .....    .....     .....     .....     .....     .....     ",
"     .....    .....     .....     .....     .....     .....     ",
"     .....    .....     .....     .....     .....     .....     ",
"     .....    .....     .....     .....     .....     .....     ",
"     .....    .....     .....     .....     .....     .....     ",
"     .....    .....     .....     .....     .....     .....     ",
"     .....    .....     .....     .....     .....     .....     ",
"     .....    .....     .....     .....     .....     .....     ",
"     .....    .....     .....     .....     .....     .....     ",
"     .....    .....     .....     .....     .....     .....     ",
"     .....    .....     .....     .....     .....     .....     ",
"     .....    .....     .....     .....     .....     .....     ",
"     .....    .....     .....     .....     .....     .....     ",
"     .....    .....     .....     .....     .....     .....     ",
"     .....    .....     .....     .....     .....     .....     ",
"     .....    .....     .....     .....     .....     .....     ",
"     .....    .....     .....     .....     .....     .....     ",
"     .....    .....     .....     .....     .....     .....     ",
"     .....    .....     .....     .....     .....     .....     ",
"     .....    .....     .....     .....     .....     .....     ",
"     .....    .....     .....     .....     .....     .....     ",
"     .....    .....     .....     .....     .....     .....     ",
"     .....    .....     .....     .....     .....     .....     ",
"     .....    .....     .....     .....     .....     .....     ",
"     .....    .....     .....     .....     .....     .....     ",
"     .....    .....     .....     .....     .....     .....     ",
"     .....    .....     .....     .....     .....     .....     ",
"     .....    .....     .....     .....     .....     .....     ",
"     .....    .....     .....     .....     .....     .....     ",
"     .....    .....     .....     .....     .....     .....     ",
"     .....    .....     .....     .....     .....     .....     ",
"     .....    .....     .....     .....     .....     .....     ",
"     .....    .....     .....     .....     .....     .....     ",
"     .....    .....     .....     .....     .....     .....     ",
"     .....    .....     .....     .....     .....     .....     ",
"     .....    .....     .....     .....     .....     .....     ",
"     .....    .....     .....     .....     .....     .....     ",
"     .....    .....     .....     .....     .....     .....     ",
"     .....    .....     .....     .....     .....     .....     ",
"     .....    .....     .....     .....     .....     .....     ",
"     .....    .....     .....     .....     .....     .....     ",
"     .....    .....     .....     .....     .....     .....     ",
"     .....    .....     .....     .....     .....     .....     ",
"     .....    .....     .....     .....     .....     .....     ",
"     .....    .....     .....     .....     .....     .....     ",
"     .....    .....     .....     .....     .....     .....     ",
"     .....    .....     .....     .....     .....     .....     ",
"     .....    .....     .....     .....     .....     .....     ",
"     .....    .....     .....     .....     .....     .....     ",
"     .....    .....     .....     .....     .....     .....     ",
"     .....    .....     .....     .....     .....     .....     ",
"     .....    .....     .....     .....     .....     .....     ",
"     .....    .....     .....     .....     .....     .....     "};
