/* XPM */
static char * 10_xpm[] = {
"64 64 2 1",
" 	c #FFFFFF",
".	c #1AAB0E",
"     .....     .....     .....     .....     .....     .....    ",
"     .....     .....     .....     .....     .....     .....    ",
"     .....     .....     .....     .....     .....     .....    ",
"     .....     .....     .....     .....     .....     .....    ",
"     .....     .....     .....     .....     .....     .....    ",
"     .....     .....     .....     .....     .....     .....    ",
"     .....     .....     .....     .....     .....     .....    ",
"     .....     .....     .....     .....     .....     .....    ",
"     .....     .....     .....     .....     .....     .....    ",
"     .....     .....     .....     .....     .....     .....    ",
"     .....     .....     .....     .....     .....     .....    ",
"     .....     .....     .....     .....     .....     .....    ",
"     .....     .....     .....     .....     .....     .....    ",
"     .....     .....     .....     .....     .....     .....    ",
"     .....     .....     .....     .....     .....     .....    ",
"     .....     .....     .....     .....     .....     .....    ",
"     .....     .....     .....     .....     .....     .....    ",
"     .....     .....     .....     .....     .....     .....    ",
"     .....     .....     .....     .....     .....     .....    ",
"     .....     .....     .....     .....     .....     .....    ",
"     .....     .....     .....     .....     .....     .....    ",
"     .....     .....     .....     .....     .....     .....    ",
"     .....     .....     .....     .....     .....     .....    ",
"     .....     .....     .....     .....     .....     .....    ",
"     .....     .....     .....     .....     .....     .....    ",
"     .....     .....     .....     .....     .....     .....    ",
"     .....     .....     .....     .....     .....     .....    ",
"     .....     .....     .....     .....     .....     .....    ",
"     .....     .....     .....     .....     .....     .....    ",
"     .....     .....     .....     .....     .....     .....    ",
"     .....     .....     .....     .....     .....     .....    ",
"     .....     .....     .....     .....     .....     .....    ",
"     .....     .....     .....     .....     .....     .....    ",
"     .....     .....     .....     .....     .....     .....    ",
"     .....     .....     .....     .....     .....     .....    ",
"     .....     .....     .....     .....     .....     .....    ",
"     .....     .....     .....     .....     .....     .....    ",
"     .....     .....     .....     .....     .....     .....    ",
"     .....     .....     .....     .....     .....     .....    ",
"     .....     .....     .....     .....     .....     .....    ",
"     .....     .....     .....     .....     .....     .....    ",
"     .....     .....     .....     .....     .....     .....    ",
"     .....     .....     .....     .....     .....     .....    ",
"     .....     .....     .....     .....     .....     .....    ",
"     .....     .....     .....     .....     .....     .....    ",
"     .....     .....     .....     .....     .....     .....    ",
"     .....     .....     .....     .....     .....     .....    ",
"     .....     .....     .....     .....     .....     .....    ",
"     .....     .....     .....     .....     .....     .....    ",
"     .....     .....     .....     .....     .....     .....    ",
"     .....     .....     .....     .....     .....     .....    ",
"     .....     .....     .....     .....     .....     .....    ",
"     .....     .....     .....     .....     .....     .....    ",
"     .....     .....     .....     .....     .....     .....    ",
"     .....     .....     .....     .....     .....     .....    ",
"     .....     .....     .....     .....     .....     .....    ",
"     .....     .....     .....     .....     .....     .....    ",
"     .....     .....     .....     .....     .....     .....    ",
"     .....     .....     .....     .....     .....     .....    ",
"     .....     .....     .....     .....     .....     .....    ",
"     .....     .....     .....     .....     .....     .....    ",
"     .....     .....     .....     .....     .....     .....    ",
"     .....     .....     .....     .....     .....     .....    ",
"     .....     .....     .....     .....     .....     .....    "};
