/* XPM */
static char * 11_xpm[] = {
"64 64 2 1",
" 	c #FFFFFF",
".	c #0774AB",
"     .....     .....     .....     .....     .....     .....    ",
"     .....     .....     .....     .....     .....     .....    ",
"     .....     .....     .....     .....     .....     .....    ",
"     .....     .....     .....     .....     .....     .....    ",
"     .....     .....     .....     .....     .....     .....    ",
"     .....     .....     .....     .....     .....     .....    ",
"     .....     .....     .....     .....     .....     .....    ",
"     .....     .....     .....     .....     .....     .....    ",
"     .....     .....     .....     .....     .....     .....    ",
"     .....     .....     .....     .....     .....     .....    ",
"     .....     .....     .....     .....     .....     .....    ",
"     .....     .....     .....     .....     .....     .....    ",
"     .....     .....     .....     .....     .....     .....    ",
"     .....     .....     .....     .....     .....     .....    ",
"     .....     .....     .....     .....     .....     .....    ",
"     .....     .....     .....     .....     .....     .....    ",
"     .....     .....     .....     .....     .....     .....    ",
"     .....     .....     .....     .....     .....     .....    ",
"     .....     .....     .....     .....     .....     .....    ",
"     .....     .....     .....     .....     .....     .....    ",
"     .....     .....     .....     .....     .....     .....    ",
"     .....     .....     .....     .....     .....     .....    ",
"     .....     .....     .....     .....     .....     .....    ",
"     .....     .....     .....     .....     .....     .....    ",
"     .....     .....     .....     .....     .....     .....    ",
"     .....     .....     .....     .....     .....     .....    ",
"     .....     .....     .....     .....     .....     .....    ",
"     .....     .....     .....     .....     .....     .....    ",
"     .....     .....     .....     .....     .....     .....    ",
"     .....     .....     .....     .....     .....     .....    ",
"     .....     .....     .....     .....     .....     .....    ",
"     .....     .....     .....     .....     .....     .....    ",
"     .....     .....     .....     .....     .....     .....    ",
"     .....     .....     .....     .....     .....     .....    ",
"     .....     .....     .....     .....     .....     .....    ",
"     .....     .....     .....     .....     .....     .....    ",
"     .....     .....     .....     .....     .....     .....    ",
"     .....     .....     .....     .....     .....     .....    ",
"     .....     .....     .....     .....     .....     .....    ",
"     .....     .....     .....     .....     .....     .....    ",
"     .....     .....     .....     .....     .....     .....    ",
"     .....     .....     .....     .....     .....     .....    ",
"     .....     .....     .....     .....     .....     .....    ",
"     .....     .....     .....     .....     .....     .....    ",
"     .....     .....     .....     .....     .....     .....    ",
"     .....     .....     .....     .....     .....     .....    ",
"     .....     .....     .....     .....     .....     .....    ",
"     .....     .....     .....     .....     .....     .....    ",
"     .....     .....     .....     .....     .....     .....    ",
"     .....     .....     .....     .....     .....     .....    ",
"     .....     .....     .....     .....     .....     .....    ",
"     .....     .....     .....     .....     .....     .....    ",
"     .....     .....     .....     .....     .....     .....    ",
"     .....     .....     .....     .....     .....     .....    ",
"     .....     .....     .....     .....     .....     .....    ",
"     .....     .....     .....     .....     .....     .....    ",
"     .....     .....     .....     .....     .....     .....    ",
"     .....     .....     .....     .....     .....     .....    ",
"     .....     .....     .....     .....     .....     .....    ",
"     .....     .....     .....     .....     .....     .....    ",
"     .....     .....     .....     .....     .....     .....    ",
"     .....     .....     .....     .....     .....     .....    ",
"     .....     .....     .....     .....     .....     .....    ",
"     .....     .....     .....     .....     .....     .....    "};
