/* XPM */
static char * 11_xpm[] = {
"64 64 193 2",
"  	c #6E6861",
". 	c #6D6968",
"+ 	c #6F6962",
"@ 	c #6E6A69",
"# 	c #706A63",
"$ 	c #6F6B69",
"% 	c #716B64",
"& 	c #706C6A",
"* 	c #726C65",
"= 	c #786B66",
"- 	c #716D6B",
"; 	c #736D66",
"> 	c #746D67",
", 	c #796C67",
"' 	c #726E6C",
") 	c #756E68",
"! 	c #7A6D68",
"~ 	c #736F6D",
"{ 	c #766F69",
"] 	c #796E6E",
"^ 	c #7B6E69",
"/ 	c #74706E",
"( 	c #77706A",
"_ 	c #7C6F6A",
": 	c #75716F",
"< 	c #78716B",
"[ 	c #7E7066",
"} 	c #7D706B",
"| 	c #767270",
"1 	c #79726C",
"2 	c #7F7167",
"3 	c #7E716C",
"4 	c #777371",
"5 	c #787372",
"6 	c #7B7367",
"7 	c #7A736D",
"8 	c #7F726D",
"9 	c #797473",
"0 	c #7C7468",
"a 	c #7B746E",
"b 	c #817369",
"c 	c #80736E",
"d 	c #7A7574",
"e 	c #7D7569",
"f 	c #7C756F",
"g 	c #827469",
"h 	c #81746F",
"i 	c #7B7675",
"j 	c #7E766A",
"k 	c #7D7670",
"l 	c #83756A",
"m 	c #827570",
"n 	c #84756B",
"o 	c #7C7776",
"p 	c #7F776B",
"q 	c #7E7771",
"r 	c #837671",
"s 	c #85766C",
"t 	c #7D7877",
"u 	c #80786C",
"v 	c #7F7872",
"w 	c #847772",
"x 	c #86776D",
"y 	c #81796D",
"z 	c #807973",
"A 	c #857873",
"B 	c #87786E",
"C 	c #7F7A79",
"D 	c #827A6E",
"E 	c #817A74",
"F 	c #867974",
"G 	c #88796F",
"H 	c #837B6F",
"I 	c #827B75",
"J 	c #877A75",
"K 	c #897A70",
"L 	c #817C7B",
"M 	c #847C70",
"N 	c #837C76",
"O 	c #887B76",
"P 	c #8A7B71",
"Q 	c #857D71",
"R 	c #847D77",
"S 	c #897C77",
"T 	c #8B7C72",
"U 	c #867E72",
"V 	c #857E78",
"W 	c #8A7D78",
"X 	c #8C7D73",
"Y 	c #877F73",
"Z 	c #867F79",
"` 	c #8B7E79",
" .	c #8D7E74",
"..	c #888074",
"+.	c #87807A",
"@.	c #8C7F7A",
"#.	c #8E7F75",
"$.	c #898175",
"%.	c #88817B",
"&.	c #8D807B",
"*.	c #8F8076",
"=.	c #8A8276",
"-.	c #89827C",
";.	c #8E817C",
">.	c #908177",
",.	c #8B8377",
"'.	c #8A837D",
").	c #8F827D",
"!.	c #918278",
"~.	c #938273",
"{.	c #8B847E",
"].	c #8D8478",
"^.	c #90837E",
"/.	c #928379",
"(.	c #948374",
"_.	c #8C857F",
":.	c #8E8579",
"<.	c #91847F",
"[.	c #93847A",
"}.	c #958475",
"|.	c #8D8680",
"1.	c #8F867A",
"2.	c #968576",
"3.	c #95857B",
"4.	c #8E8781",
"5.	c #90877B",
"6.	c #978677",
"7.	c #96867C",
"8.	c #8F8882",
"9.	c #91887C",
"0.	c #948782",
"a.	c #988778",
"b.	c #97877D",
"c.	c #908983",
"d.	c #92897D",
"e.	c #998879",
"f.	c #98887E",
"g.	c #918A84",
"h.	c #938A7E",
"i.	c #9A8979",
"j.	c #99897F",
"k.	c #948B7F",
"l.	c #9B8A7A",
"m.	c #938C86",
"n.	c #958C80",
"o.	c #9A8B80",
"p.	c #9C8B7B",
"q.	c #968D81",
"r.	c #9B8C81",
"s.	c #9D8C7C",
"t.	c #978E82",
"u.	c #9C8D82",
"v.	c #9E8D7D",
"w.	c #988F83",
"x.	c #9D8E83",
"y.	c #999084",
"z.	c #9E8F84",
"A.	c #9A9185",
"B.	c #9F9085",
"C.	c #9B9286",
"D.	c #A19180",
"E.	c #A09186",
"F.	c #9C9387",
"G.	c #A19287",
"H.	c #A39281",
"I.	c #9A948D",
"J.	c #9D9488",
"K.	c #A49382",
"L.	c #9E9589",
"M.	c #A09583",
"N.	c #A39489",
"O.	c #A59483",
"P.	c #9F968A",
"Q.	c #A4958A",
"R.	c #A69585",
"S.	c #A5968B",
"T.	c #A89680",
"U.	c #A79686",
"V.	c #A89787",
"W.	c #A49987",
"X.	c #A7988D",
"Y.	c #A99888",
"Z.	c #AA9989",
"`.	c #AB9A8A",
" +	c #A49C8F",
".+	c #AD9C8C",
"++	c #AC9C91",
"@+	c #AE9D8D",
"#+	c #AF9E8E",
"$+	c #B19E88",
"%+	c #B1A090",
"&+	c #B2A191",
"*+	c #C8AE99",
"!.A 5.q 1 E !.u.~.V.E.7 1 1 f > ( { E { E [.1.!.].K j./.#.< { ) > a a ) a r #.{ V q %.a a {.I !.V '.k k.:.+.k _.'.z r F 7 I v S ",
"m m O v k k ].R F ].T U.j.V ) < ) < f f v E !.f R I #.a I q x 7 P ) -.v #.b.*.3.n.v ( y :.q 7 V %.{.I V -.v n.E E +.q 8 1 z ` U.",
"-.S +.v z C.V I z _.B < M.[./.K U.x.i.*.9.7.y B {.1.j.+.< a 1 F 7 {.n f E ( q #.5.!.p.9.+.!.z @+j.S.b.].%.V 1.9.d.).q Z -.a w :.",
"V w F N g.'.q q k E ) V ].G 3.B.=.1.< 7 T 3.k.b.J [.C.) 1 < 1 a I I b.-.I -.'.7.1 7 f.N 7 7 q Z.Z f v X _.Z +.v W O A n a K I h ",
"f { 7 Z a ^.F.:.1 j.7 ( I ; ) & ; ) 7 c a X @+f.!.T 1 & q 7 R 1 f v 8.g.x.x.*.G.( N I W k ( @.t.7 N f ;.( z w.+.r n.L.z n A > 3 ",
"> a r f k F q a N ) ) * < ; $ $ ( I f a k x M x.!.V Q k { f f q _.z R ].k v :.f.) ( +.I 1 I *+D.&.q ( N r f 1.r K [.].Z I r E j.",
"v m = f < v g.a Y 7 1 7 1 4.> > A f < f %._.*.v :.b.Y I q V #.a ( 7 { R ( I * ) q.>.f z.j.b.k w Z f.*.;.N q _.J.V O 7 O G a V r ",
"*.7.A a J T R Z 1 7 < f 8 k s q -.8 1 W a f f 1 < f - ( 1 ) k G.x.>.x f f { { # k #+f.X #+a E { f +.K 1 ) [.v y.F c.V +.).4.f./.",
">.h ( a 1 J k N 7 > ^.=.n !.P h z Z x 7 r V < < v E q k < % 1 a 3.> z a 7 7 / + z E.+.E j. .z Z q I ~ > 7 ) k.m < z ;.^.5.3.J Z ",
"k { { & m 7 a k q * 1 < B s F a ( } B ( f f v 7 < v a 7 7 ; * ) P v { f R ( ( ) k.t.E +.A j.a 7 a v 1 F 7 a E k Z k k I |.#.3.F ",
"1 V v v ^ > k 7 { { O $.T g ) ( > { 1 < ( 7 v v a k f k ; ; > ; . a z ( ( 1 ) +.#+N 5.R ].E I k I %.E Y f q E ; k.< |.-.n.Z E a ",
"v w k '.5 ^ 1 m 7 } k ^ k < % 7 < ; 7 z a q v 7 f a 7 7 > > > ( # o ) 7 v { a 9.W +.|.Z z I Z k I /.h q R 1 E a {.R R V  .` Z '.",
"c z h z | R q a a B v { ( > * 1 a ; 1 ( { k k < ..< < ) f 4.+.< B *.7 7 V 1 z &+I f -.I 7 f v v @.*.A A q { ' { ) O 1 E Z '._.w ",
"k z r r f a < 1 < I !.h 7 1 ) # R k ) > ( 7 1 a k V < f /.V f ( k  .f I 0.E %.j.-.-.v q q ( 1 7 7 @.W J < ' f 8 7 $.a q O %.q f ",
"3 z v k m W F z q c c < { 1 ; 1 K ~ q E 7 k q f 7 ( I v k ( < 1 v < 1 E {.Y E.7 < q V Z A J < 1 W %.Z x < < 7 1 1 {.( 7 v R '.1 ",
"m ( 1 5 ) O 7 3 ( * { { F R < 7 ].q q 7 G q k 7 z < a a S v k Z :.v %.R 1.+.Q.( R E k +.V I a q z r v 7 h ( v k < a 7.7 w Z '.k ",
"h 1 k : ( > { k < < R 7 k b.Z k a %.a q z $.E k q N a E ` 7 q R I a f 7 f Q.Y.f ( f k N F N z k q R E a f < r q f f 7.k a v N J ",
"q t 7 v ' ~ ( < a k r F ` q 5.q v z 7 Z E -.7 1 E I k 7 k 7 ( a v k q q v 1 f N ~ f k V E v v q a a k f z k < R a k #.r 7 a a F ",
"a f < r < a z q ].+.k I P J J 9.v E <.E N E a V z N a z a 7 q k a k I 1 a 7 / *.< 7 E N q v a 7 7 ( f ( q < < < / { v F : ( v v ",
"( v A k ( ( h r N f q P I z +.I T 9.a k f v E q R I Z k k q v I a N N z 1 5 7 $.( v ( N R a < v ' ( a k z k q : 5 { / _.; 5 7 7 ",
"W R 1 a 7 ( I m P Z B X ^.F a ].4.m.V v f v F v '.+.k < v z 7 k z v q f z W q 9.J k v v k / a a / f q q f < 1 I < ( ) a a a a I ",
"I a k z v v f a { > > N w Q h Z v V 5.+.I '.m.z E ^.-.a E J v q v N I k v '.V q x.f f a E V 7 a a : E E q i a N z ( k z | f f -.",
"V a 1 ( 1 D M a < { ) ( 7 k 7 r R R 9.z N +.d.O +.v Z v O P z z I a f v z v z q *.f 7 q q I 7 k k v k f f q { { 1 : ~ f a ( 7 c ",
"~ ) a 7 q I < q ) > ) 1 7 q S v v f $.G.d.N -.-.E q z E 1 n 7 ( < { ) I /.q E -.O.q z k a f v J a z ( z v < k a a 5 ~ 1 9 ( 7 1 ",
"' ( k v E 1 < k * { { ( a < T %.%.k R I v 1 k a ( 8 { ( { f 1./.].x G 1 w G *.#.S 1.-.+.a 1 k h >.f a 1 ( 7 A q - 9 | N | 5 < 7 ",
") < q f z 7 { { ( 7 < ( q v q k N N q v h.N f v K ..].P G >.7 ( < ( < ; w h E k A Z P %.F k I P k f N z q k q 9 k - ' f 1 5 - f ",
"/ ' 7 f f a a < > 1 v ( q V !.R f -.z k x v G c X z 1 1 7 z { 7 +.q f v T w I B x ` Y f %.v 1 v ' ) k A m w k ~ f : | ( F : L q ",
"5 ' 7 f y V I { 1 7 N 1 k F 7 O r =.B K I ) ( Y f ) 7 7 k v ( f I ( f A S A P K G z q f / 5 ' 7 { { ( k 1 1 f 5 < < - a < | 5 5 ",
"1 ' k $.Q a $.N ) V  ./.].f / v 8 >... .T G  .h ( 1 7 a v f ( R +.q S O m z E 1 f k +.R ~ & 7 7 ' 1 ; ) ( : ) : 5 ' / ' 7 3 V 1 ",
"~ ( - z E Z E B z T B P *.N 1 I s #.A k 7 5 < | c P E h m a 1 f R F O N f 1 ` N _.N ' V +.) O J k k 1 a q c c W m ( a f b.i.X 8 ",
"T ( 1 ] k A Z O E < n v I f =.w F T F I J f v 7 Z ..].+.A z R F z q f 7 N N a V 5 : ~ %.| 1 7 f k 7 q ( > / < < w *.u.[.f / '.7.",
"H.B 3.< c W B T q k ].6 q r w ).W r f J 1 t | R Z n.1 F w 1 f a 7 N 7 a k C f ( f f a _.< E < N / d 9 z / a ~ : { 7 F J w f 7 K ",
"F F m m *./. .(.X ( p  .$.7 f E q W <.I a k / N f 1 R 7 m F J P A N _.q a 7 V a f < < V v m A v E z < ) ) ; 1 1 a 7 a q a E z T ",
"@.h J 3 r r A X b 7 $.!.!.O %.R /.J a 7 5 f J ~ a r A F w r q F K A w f F a q a : ( - q w a 7 v v 1 a 1 > 7 E z ) k < { 7 # z P ",
"< q I >.J f J F  .K B f f f r ^.X I v <.k 5 a ( 1 r w h G S c ~.G &.S N f F k { 7 * ~ a a 1 q a f U E v f { f 1 f z f k < v ..) ",
"> v E z k 1 v h.[.3.P T F S *.w 3.#.>.W m v 5 7 +.f R 7.G A B }.2.#.*.A A O a ! % # - 1 N < k *.Y v 7 #.f { E E < I f { f ( f 7 ",
"  I y z M v q E R =.T P v q f J S *.).3.N -.'.j.9.k '.@.#.%.G K G !.]...V f v q * ) { * v f z {.].Q z R I ; k 1 R k ) ; k h k Y ",
"> -.q a N ( z a z 1 F q N S r '.1 { *.I ].G.d.v 9.9.N.G.3.B >.).+.9.P.3.z ( a > ( > < < R a k.N N h...j.$.{ ; 7 { ; * ( k < ( ].",
"&.+.=.R R N +.1 1 f ( >.j ..R E k 1  .k k j.{.f < f #.z K E b < D u :.j.y.:.q q a % a < ) E E y [ a Z /.f *.z k f ..1 f z 7 a T ",
"v /.!.Q E N d.Z Y :.>.W.P X 9.P a 1 v 7 a N Z a { v U ..D b.u 7 ) ( ) 7 7  +n.h.( ) v a ].q =.y 1 { 7 6 M u f q < f R ].( c x 7 ",
"< E ) 1 a f k k u 7 Q M e n.U z 7 7 1 { : R 7 a 7 =.E q f 7 v k k f 7 < { f I x.G.++Z.K.>.v 0 v u a 7 k f u j f e u a H E E z R ",
"f v ; { q q V I $...D < a 7 7 ( 7 < ( I I.V j.A.n.V < k 7 { 1 ^ Y ..G.;.a { D 1 k { 7 > f { f 1 M z z % > > { < g ( ( s v a v E ",
"8 q q 1 ( < E E f U f _.v ) ( E E > { < w.c.+.E.f k R R 7 v a q f E $.a Z X B.K 7 1 f ( < ( 1 q v < N 1 < ; 7 j 2 1 ^ q a v z +.",
"a q { ( 1 R 7 z M M Q R 1 z M E =.H Y 1.n.k 7 :.a f ].j.5.>.k v k ].7 a z E E M a q f 1 ( ( f a v 1 k ( % 1 7 w k k k T E v N d.",
"V U k ) ( < a 7 q `.7.Y y 3.>.X.q { ; ( ( 1 < '.]...U v a 7.5...:.< a 7 f v E v N y Y +.$.-.h.G.8.b.=.Y 9.T ;.M !.7 U S +.R f.a ",
"7 z R 5.I N ..G.].M 1 7 7 1 a -.; f > ) 1 f 1 v v 1 E Z v < E < < R k v k 7 1 z I b.f v f z E $.7 1 ( ) { > ) { { E r.q A.d.3.Z ",
"a h r I +.V v y *.a 7 f k E a < ( 1 { { ; f ( < 7 k 8.H f f { ( < ) I a I u v z z ].R Q Y M  .q ( a 1 ( ; { ; ; ) k b.f f < { q ",
"a f k Q I b.a p 6 U v $.v z k f a 1 1 ( < { 1 a q ( v a f f k a 7 E I 1 k z H N R y.V ].p a 0 y { ( 7 { 1 { , ) ; < Q T 1 ( ( ( ",
"n n x 0 7 Y j =.6 v < a f < u 7 < 1 z z < % < a k j k v < a 7 7 z 1 < ( ..z E q $.z.v Q Q u a D >.) ) { 1 { ) 7 < ) v y f 7 1 < ",
"b.i.B z K ].v g D 1 < q ( 1 q { 1 k v < 7 ( f z ( < :.N k a f < < 7 q f s =.U N R a v v x.a k ~.$+B  .a.>.1 > ( 1 #.G 7.z #.b.2.",
"K K u.p v u k v E ) ( k E 1 1 1 ) ) ; ) * ( ( q I q u I g 1 k ; 7 k f 7 a K x Q 5.7 q +.'.3.E.p.n > ) { a v. .a.6.i.T.v.!.[.G K ",
"Y j.k.d.q I ..V a 1 > > q 1 < ( { # ) { ) q ( a f q < B n k < { > < c 1 A =.>.b.j.$.n.v q E ].>.X a 7 ) ) ) ( U a < ].h v 1 h g ",
"m z x Z Q *.U 7 > 7 1 ( q z 1 H { * ) ) ; I ( 1 1 r..+*.a a ( v < f 1 1 q U Z.f.k a N N $.q :.*.*.f f f z ) < < > > !.x h ( P 7 ",
"m m k k a T ]...H f s.u.E f h.; j.].h.k { ; 7 f q M 7 H a I P s  .3.2.i.p.U t.3.k q a z _.].1 ( U ( > { { 1 ) ) < a s.3.n T x.G.",
"#+j.K  .T P =.v { 7 p < { { ( ) k 1  .P Q a j.[./.b.l.J ( 1 ( < E < k f ^ k E.k k z z v k ..j.q v ..v ( < > ; ( < a 7.I T [.f x.",
".+r.8 } B ..Q a 1 v 5.T 1 f x ( 1 + $ ( k -.q.$.q N ( > { ; f k ( ; v a N 8 s.b.T v f k 8.u.i.E =.*.B  .7 x z.Q.u.7.7.E /.Y.R.X ",
" .v ! < s [.#.7...$.].X v k G K % ) ) z > 7 ( 1 ].M M ( 1 { ( < 1 < < < a E z 7 q z q ].f.k I T s.Q f.< [.K { T 1 7 [.b.].I I !.",
"z A { R z k B T T U k k f 7 m x { # ) > < 1 f a a { 7 1 { ) ( 1 7 { < 7 I E G k +.q a v I E 1 $.f.) > k x ) 1 ( < N E Q v q q E ",
"X 7.8 a r A h a a q q 7 ) k E ( %   % ( { v E z { { 1 a > 7 < a 1 { < > 1 k /.( 1 D a v { 1 a d.< v 1 k ( ; ) < a a k +.7 q F !.",
"z.J *.3.*.E v k +.r { ; ( < 7 > ; ; > * ) k Z E k 7 1 < ) a > f < > < * { K { k v 7 1 > ) ( { z 1 N q { 7 z 1 f 7 7 k I E *.P.j.",
"v 7 r J 7 1 ( 1 I I < 1 ( * > % - > ( ; ) 1 z 8 a 7 1 ( f %.( ) f > 1 > < 7 q 1 ) ) < > < v ( E I w.f a 7 a v ! ( E f X b.Y F 7 ",
"A Z q _.v a 1 1 < z z ( > * { # > ; ( 1 7 q k x I v q f < q 1 v f v a < =.y * 1 f < 7 ( < 1 f k k R >.q z k Y j.=.3./.a N R /.I ",
"k c F %.N 1 R q k f R 7 < 1 ) % + * ) 1 a E 5...k I ].< k q N a f ) 7 k a R ( ; v ( f f < q t.f f ` ].k E v f.r.a a 1 f 1 U I h ",
">.B h ].f.`.9.].u.7.].v f < k > 1 * a ) 7 q ].W C.E  .k ( < a f ( { 7 f Z Y f > q 7 ) 7 7 7 v E -.k k.j.k.[.z v E v I k v Z +.z "};
